<svg xmlns="http://www.w3.org/2000/svg" xmlns:xlink="http://www.w3.org/1999/xlink" width="1366" zoomAndPan="magnify" viewBox="0 0 1024.5 576" height="768" preserveAspectRatio="xMidYMid meet" version="1.0"><defs><g/><clipPath id="381af305d2"><path d="M 352 163 L 705 163 L 705 312 L 352 312 Z M 352 163 " clip-rule="nonzero"/></clipPath><clipPath id="e0f911704f"><path d="M 358.238281 155.210938 L 710.933594 171.609375 L 704.144531 317.628906 L 351.449219 301.230469 Z M 358.238281 155.210938 " clip-rule="nonzero"/></clipPath><clipPath id="9e8f7a905b"><path d="M 358.238281 155.210938 L 710.933594 171.609375 L 704.144531 317.628906 L 351.449219 301.230469 Z M 358.238281 155.210938 " clip-rule="nonzero"/></clipPath><clipPath id="574216d353"><rect x="0" width="389" y="0" height="90"/></clipPath><clipPath id="c1129bc766"><rect x="0" width="333" y="0" height="21"/></clipPath></defs><g clip-path="url(#381af305d2)"><g clip-path="url(#e0f911704f)"><g clip-path="url(#9e8f7a905b)"><path fill="#fafafa" d="M 534.175781 216.179688 L 534.550781 208.101562 C 534.710938 204.660156 536.914062 201.6875 540.167969 200.539062 C 547.90625 197.800781 552.980469 190.4375 552.796875 182.210938 C 552.585938 172.820312 545.394531 164.929688 536.070312 163.847656 C 530.769531 163.230469 525.628906 164.789062 521.582031 168.226562 C 518.214844 171.089844 515.96875 175.054688 515.199219 179.367188 C 513.457031 179.96875 512.167969 181.582031 512.074219 183.539062 C 511.957031 186.101562 513.9375 188.273438 516.496094 188.394531 C 519.058594 188.511719 521.234375 186.53125 521.351562 183.96875 C 521.4375 182.144531 520.453125 180.519531 518.953125 179.695312 C 519.609375 176.351562 521.359375 173.351562 524.015625 171.09375 C 527.257812 168.339844 531.382812 167.089844 535.632812 167.585938 C 543.105469 168.449219 548.863281 174.773438 549.03125 182.289062 C 549.179688 188.890625 545.109375 194.796875 538.910156 196.992188 C 534.210938 198.652344 531.023438 202.945312 530.789062 207.925781 L 530.414062 216.003906 C 514.929688 226.125 410.351562 292.972656 352.042969 291.699219 C 352.042969 291.699219 363.164062 301.800781 391.519531 294.410156 C 419.332031 287.160156 477.242188 268.265625 531.167969 240.40625 C 582.273438 273.148438 638.179688 297.335938 665.199219 307.136719 C 692.746094 317.125 704.757812 308.101562 704.757812 308.101562 C 646.585938 303.957031 548.660156 227.695312 534.175781 216.179688 Z M 534.175781 216.179688 " fill-opacity="1" fill-rule="nonzero"/></g></g></g><g transform="matrix(1, 0, 0, 1, 337, 293)"><g clip-path="url(#574216d353)"><g fill="#fafafa" fill-opacity="1"><g transform="translate(0.600377, 72.423159)"><g><path d="M 8.25 0.078125 C 8.363281 -4.242188 8.445312 -9.082031 8.5 -14.4375 C 8.5625 -19.800781 8.59375 -25.300781 8.59375 -30.9375 C 8.59375 -36.582031 8.5625 -42.082031 8.5 -47.4375 C 8.445312 -52.800781 8.363281 -57.644531 8.25 -61.96875 C 12.90625 -61.96875 17.195312 -61.984375 21.125 -62.015625 C 25.0625 -62.046875 28.851562 -62.085938 32.5 -62.140625 C 36.144531 -62.191406 39.878906 -62.21875 43.703125 -62.21875 C 52.285156 -62.21875 59.648438 -61 65.796875 -58.5625 C 71.953125 -56.125 76.65625 -52.601562 79.90625 -48 C 83.164062 -43.394531 84.796875 -37.835938 84.796875 -31.328125 C 84.796875 -24.753906 83.082031 -19.125 79.65625 -14.4375 C 76.226562 -9.75 71.316406 -6.15625 64.921875 -3.65625 C 58.523438 -1.164062 50.832031 0.078125 41.84375 0.078125 Z M 17.265625 -56 C 17.203125 -47.6875 17.1875 -39.40625 17.21875 -31.15625 C 17.25 -22.90625 17.289062 -14.597656 17.34375 -6.234375 C 20.988281 -6.171875 24.890625 -6.097656 29.046875 -6.015625 C 33.203125 -5.929688 37.46875 -5.890625 41.84375 -5.890625 C 48.976562 -5.890625 55.070312 -6.898438 60.125 -8.921875 C 65.175781 -10.941406 69.0625 -13.847656 71.78125 -17.640625 C 74.5 -21.429688 75.859375 -25.992188 75.859375 -31.328125 C 75.859375 -36.546875 74.523438 -41.003906 71.859375 -44.703125 C 69.203125 -48.410156 65.375 -51.242188 60.375 -53.203125 C 55.375 -55.171875 49.367188 -56.15625 42.359375 -56.15625 C 38.484375 -56.15625 34.425781 -56.128906 30.1875 -56.078125 C 25.945312 -56.023438 21.640625 -56 17.265625 -56 Z M 17.265625 -56 "/></g></g></g><g fill="#fafafa" fill-opacity="1"><g transform="translate(90.192809, 72.423159)"><g><path d="M 16.5 0 L 7.078125 0 C 8.140625 -14.875 8.140625 -29.609375 7.078125 -44.203125 C 8.703125 -44.316406 10.351562 -44.5 12.03125 -44.75 C 13.71875 -45.007812 15.097656 -45.332031 16.171875 -45.71875 C 15.828125 -42.570312 15.570312 -39.523438 15.40625 -36.578125 C 15.238281 -33.640625 15.097656 -30.597656 14.984375 -27.453125 L 15.65625 -27.453125 C 17.0625 -32.390625 19.082031 -36.21875 21.71875 -38.9375 C 24.363281 -41.664062 27.296875 -43.519531 30.515625 -44.5 C 33.742188 -45.476562 36.847656 -45.800781 39.828125 -45.46875 C 39.210938 -43 39.210938 -40.191406 39.828125 -37.046875 C 37.753906 -37.554688 35.875 -37.8125 34.1875 -37.8125 C 30.988281 -37.8125 27.984375 -37.132812 25.171875 -35.78125 C 22.367188 -34.4375 20.097656 -32.25 18.359375 -29.21875 C 16.617188 -26.1875 15.75 -22.171875 15.75 -17.171875 C 15.75 -14.253906 15.773438 -11.390625 15.828125 -8.578125 C 15.890625 -5.773438 16.113281 -2.914062 16.5 0 Z M 16.5 0 "/></g></g></g><g fill="#fafafa" fill-opacity="1"><g transform="translate(131.536684, 72.423159)"><g><path d="M 32.25 0.921875 C 23.4375 0.921875 16.554688 -1.148438 11.609375 -5.296875 C 6.671875 -9.453125 4.203125 -15.265625 4.203125 -22.734375 C 4.203125 -30.035156 6.671875 -35.75 11.609375 -39.875 C 16.554688 -44 23.4375 -46.0625 32.25 -46.0625 C 41.0625 -46.0625 47.921875 -44 52.828125 -39.875 C 57.742188 -35.75 60.203125 -30.035156 60.203125 -22.734375 C 60.203125 -15.265625 57.742188 -9.453125 52.828125 -5.296875 C 47.921875 -1.148438 41.0625 0.921875 32.25 0.921875 Z M 32.171875 -4.46875 C 38.335938 -4.46875 43.144531 -6.066406 46.59375 -9.265625 C 50.050781 -12.460938 51.78125 -16.953125 51.78125 -22.734375 C 51.78125 -28.179688 50.050781 -32.472656 46.59375 -35.609375 C 43.144531 -38.753906 38.335938 -40.328125 32.171875 -40.328125 C 25.929688 -40.328125 21.113281 -38.753906 17.71875 -35.609375 C 14.320312 -32.472656 12.625 -28.179688 12.625 -22.734375 C 12.625 -16.953125 14.320312 -12.460938 17.71875 -9.265625 C 21.113281 -6.066406 25.929688 -4.46875 32.171875 -4.46875 Z M 32.171875 -4.46875 "/></g></g></g><g fill="#fafafa" fill-opacity="1"><g transform="translate(195.952306, 72.423159)"><g><path d="M 38.5625 -46.0625 C 43.164062 -46.0625 47.179688 -45.101562 50.609375 -43.1875 C 54.035156 -41.28125 56.703125 -38.628906 58.609375 -35.234375 C 60.515625 -31.835938 61.46875 -27.894531 61.46875 -23.40625 C 61.46875 -18.632812 60.457031 -14.394531 58.4375 -10.6875 C 56.414062 -6.988281 53.484375 -4.085938 49.640625 -1.984375 C 45.796875 0.117188 41.175781 1.171875 35.78125 1.171875 C 31.007812 1.171875 26.8125 0.0507812 23.1875 -2.1875 C 19.570312 -4.4375 16.867188 -7.523438 15.078125 -11.453125 C 15.128906 -9.429688 15.179688 -7.492188 15.234375 -5.640625 C 15.296875 -3.785156 15.382812 -1.90625 15.5 0 L 7.15625 0 C 7.320312 -1.519531 7.460938 -3.835938 7.578125 -6.953125 C 7.691406 -10.066406 7.773438 -13.644531 7.828125 -17.6875 C 7.890625 -21.726562 7.921875 -25.976562 7.921875 -30.4375 C 7.921875 -34.90625 7.890625 -39.285156 7.828125 -43.578125 C 7.773438 -47.867188 7.675781 -51.8125 7.53125 -55.40625 C 7.394531 -59 7.242188 -61.914062 7.078125 -64.15625 C 8.472656 -64.269531 10.109375 -64.4375 11.984375 -64.65625 C 13.867188 -64.882812 15.40625 -65.195312 16.59375 -65.59375 C 16.363281 -64.25 16.175781 -62.382812 16.03125 -60 C 15.894531 -57.613281 15.785156 -54.972656 15.703125 -52.078125 C 15.617188 -49.191406 15.546875 -46.285156 15.484375 -43.359375 C 15.429688 -40.441406 15.375 -37.734375 15.3125 -35.234375 C 15.257812 -32.734375 15.234375 -30.726562 15.234375 -29.21875 L 15.921875 -29.21875 C 17.035156 -32.195312 18.546875 -34.960938 20.453125 -37.515625 C 22.367188 -40.066406 24.8125 -42.128906 27.78125 -43.703125 C 30.757812 -45.273438 34.351562 -46.0625 38.5625 -46.0625 Z M 33.34375 -4.046875 C 36.882812 -4.046875 40.15625 -4.734375 43.15625 -6.109375 C 46.15625 -7.484375 48.566406 -9.570312 50.390625 -12.375 C 52.210938 -15.1875 53.125 -18.695312 53.125 -22.90625 C 53.125 -26.332031 52.410156 -29.332031 50.984375 -31.90625 C 49.554688 -34.488281 47.550781 -36.507812 44.96875 -37.96875 C 42.382812 -39.4375 39.296875 -40.171875 35.703125 -40.171875 C 32.222656 -40.171875 29.273438 -39.609375 26.859375 -38.484375 C 24.441406 -37.359375 22.460938 -35.867188 20.921875 -34.015625 C 19.378906 -32.160156 18.1875 -30.140625 17.34375 -27.953125 C 16.5 -25.765625 15.910156 -23.585938 15.578125 -21.421875 C 15.242188 -19.265625 15.078125 -17.316406 15.078125 -15.578125 L 15.078125 -14.65625 C 16.648438 -11.90625 18.445312 -9.753906 20.46875 -8.203125 C 22.488281 -6.660156 24.617188 -5.582031 26.859375 -4.96875 C 29.109375 -4.351562 31.269531 -4.046875 33.34375 -4.046875 Z M 33.34375 -4.046875 "/></g></g></g><g fill="#fafafa" fill-opacity="1"><g transform="translate(261.630958, 72.423159)"><g><path d="M 58.359375 -11.703125 C 58.128906 -10.640625 58.015625 -9.390625 58.015625 -7.953125 C 58.015625 -6.523438 58.128906 -5.304688 58.359375 -4.296875 C 54.816406 -2.554688 50.867188 -1.25 46.515625 -0.375 C 42.171875 0.488281 37.863281 0.921875 33.59375 0.921875 C 23.9375 0.921875 16.625 -1.164062 11.65625 -5.34375 C 6.6875 -9.53125 4.203125 -15.351562 4.203125 -22.8125 C 4.203125 -27.757812 5.296875 -31.957031 7.484375 -35.40625 C 9.679688 -38.863281 12.800781 -41.515625 16.84375 -43.359375 C 20.882812 -45.210938 25.65625 -46.140625 31.15625 -46.140625 C 36.375 -46.140625 41.070312 -45.210938 45.25 -43.359375 C 49.4375 -41.515625 52.691406 -38.753906 55.015625 -35.078125 C 57.347656 -31.398438 58.347656 -26.835938 58.015625 -21.390625 C 39.828125 -21.554688 24.726562 -21.554688 12.71875 -21.390625 C 13.101562 -16.390625 15.019531 -12.398438 18.46875 -9.421875 C 21.925781 -6.453125 27.472656 -4.992188 35.109375 -5.046875 C 37.691406 -5.109375 40.425781 -5.40625 43.3125 -5.9375 C 46.207031 -6.46875 48.988281 -7.222656 51.65625 -8.203125 C 54.320312 -9.191406 56.554688 -10.359375 58.359375 -11.703125 Z M 31.15625 -40.5 C 25.59375 -40.5 21.179688 -39.132812 17.921875 -36.40625 C 14.671875 -33.6875 12.90625 -29.75 12.625 -24.59375 C 18.351562 -24.476562 24.375 -24.40625 30.6875 -24.375 C 37.007812 -24.34375 43.3125 -24.359375 49.59375 -24.421875 C 49.375 -27.953125 48.40625 -30.910156 46.6875 -33.296875 C 44.976562 -35.679688 42.773438 -37.476562 40.078125 -38.6875 C 37.378906 -39.894531 34.40625 -40.5 31.15625 -40.5 Z M 31.15625 -40.5 "/></g></g></g><g fill="#fafafa" fill-opacity="1"><g transform="translate(324.867741, 72.423159)"><g><path d="M 58.359375 -11.703125 C 58.128906 -10.640625 58.015625 -9.390625 58.015625 -7.953125 C 58.015625 -6.523438 58.128906 -5.304688 58.359375 -4.296875 C 54.816406 -2.554688 50.867188 -1.25 46.515625 -0.375 C 42.171875 0.488281 37.863281 0.921875 33.59375 0.921875 C 23.9375 0.921875 16.625 -1.164062 11.65625 -5.34375 C 6.6875 -9.53125 4.203125 -15.351562 4.203125 -22.8125 C 4.203125 -27.757812 5.296875 -31.957031 7.484375 -35.40625 C 9.679688 -38.863281 12.800781 -41.515625 16.84375 -43.359375 C 20.882812 -45.210938 25.65625 -46.140625 31.15625 -46.140625 C 36.375 -46.140625 41.070312 -45.210938 45.25 -43.359375 C 49.4375 -41.515625 52.691406 -38.753906 55.015625 -35.078125 C 57.347656 -31.398438 58.347656 -26.835938 58.015625 -21.390625 C 39.828125 -21.554688 24.726562 -21.554688 12.71875 -21.390625 C 13.101562 -16.390625 15.019531 -12.398438 18.46875 -9.421875 C 21.925781 -6.453125 27.472656 -4.992188 35.109375 -5.046875 C 37.691406 -5.109375 40.425781 -5.40625 43.3125 -5.9375 C 46.207031 -6.46875 48.988281 -7.222656 51.65625 -8.203125 C 54.320312 -9.191406 56.554688 -10.359375 58.359375 -11.703125 Z M 31.15625 -40.5 C 25.59375 -40.5 21.179688 -39.132812 17.921875 -36.40625 C 14.671875 -33.6875 12.90625 -29.75 12.625 -24.59375 C 18.351562 -24.476562 24.375 -24.40625 30.6875 -24.375 C 37.007812 -24.34375 43.3125 -24.359375 49.59375 -24.421875 C 49.375 -27.953125 48.40625 -30.910156 46.6875 -33.296875 C 44.976562 -35.679688 42.773438 -37.476562 40.078125 -38.6875 C 37.378906 -39.894531 34.40625 -40.5 31.15625 -40.5 Z M 31.15625 -40.5 "/></g></g></g></g></g><g transform="matrix(1, 0, 0, 1, 367, 388)"><g clip-path="url(#c1129bc766)"><g fill="#fafafa" fill-opacity="1"><g transform="translate(1.145315, 16.020002)"><g><path d="M 1.4375 0 L 1.4375 -12.046875 L 3.0625 -12.046875 L 3.0625 -1.328125 L 9.15625 -1.328125 L 9.15625 0 Z M 1.4375 0 "/></g></g></g><g fill="#fafafa" fill-opacity="1"><g transform="translate(15.352738, 16.020002)"><g><path d="M 12.78125 -6.078125 C 12.78125 -4.816406 12.535156 -3.710938 12.046875 -2.765625 C 11.566406 -1.816406 10.875 -1.085938 9.96875 -0.578125 C 9.070312 -0.078125 8.015625 0.171875 6.796875 0.171875 C 5.554688 0.171875 4.488281 -0.078125 3.59375 -0.578125 C 2.695312 -1.078125 2.007812 -1.800781 1.53125 -2.75 C 1.0625 -3.695312 0.828125 -4.804688 0.828125 -6.078125 C 0.828125 -8.003906 1.351562 -9.507812 2.40625 -10.59375 C 3.457031 -11.675781 4.925781 -12.21875 6.8125 -12.21875 C 8.03125 -12.21875 9.085938 -11.972656 9.984375 -11.484375 C 10.890625 -11.003906 11.582031 -10.296875 12.0625 -9.359375 C 12.539062 -8.429688 12.78125 -7.335938 12.78125 -6.078125 Z M 11.109375 -6.078125 C 11.109375 -7.578125 10.734375 -8.753906 9.984375 -9.609375 C 9.234375 -10.460938 8.175781 -10.890625 6.8125 -10.890625 C 5.4375 -10.890625 4.367188 -10.46875 3.609375 -9.625 C 2.859375 -8.78125 2.484375 -7.597656 2.484375 -6.078125 C 2.484375 -4.566406 2.863281 -3.367188 3.625 -2.484375 C 4.382812 -1.597656 5.441406 -1.15625 6.796875 -1.15625 C 8.179688 -1.15625 9.242188 -1.582031 9.984375 -2.4375 C 10.734375 -3.289062 11.109375 -4.503906 11.109375 -6.078125 Z M 11.109375 -6.078125 "/></g></g></g><g fill="#fafafa" fill-opacity="1"><g transform="translate(33.436778, 16.020002)"><g><path d="M 12.78125 -6.078125 C 12.78125 -4.816406 12.535156 -3.710938 12.046875 -2.765625 C 11.566406 -1.816406 10.875 -1.085938 9.96875 -0.578125 C 9.070312 -0.078125 8.015625 0.171875 6.796875 0.171875 C 5.554688 0.171875 4.488281 -0.078125 3.59375 -0.578125 C 2.695312 -1.078125 2.007812 -1.800781 1.53125 -2.75 C 1.0625 -3.695312 0.828125 -4.804688 0.828125 -6.078125 C 0.828125 -8.003906 1.351562 -9.507812 2.40625 -10.59375 C 3.457031 -11.675781 4.925781 -12.21875 6.8125 -12.21875 C 8.03125 -12.21875 9.085938 -11.972656 9.984375 -11.484375 C 10.890625 -11.003906 11.582031 -10.296875 12.0625 -9.359375 C 12.539062 -8.429688 12.78125 -7.335938 12.78125 -6.078125 Z M 11.109375 -6.078125 C 11.109375 -7.578125 10.734375 -8.753906 9.984375 -9.609375 C 9.234375 -10.460938 8.175781 -10.890625 6.8125 -10.890625 C 5.4375 -10.890625 4.367188 -10.46875 3.609375 -9.625 C 2.859375 -8.78125 2.484375 -7.597656 2.484375 -6.078125 C 2.484375 -4.566406 2.863281 -3.367188 3.625 -2.484375 C 4.382812 -1.597656 5.441406 -1.15625 6.796875 -1.15625 C 8.179688 -1.15625 9.242188 -1.582031 9.984375 -2.4375 C 10.734375 -3.289062 11.109375 -4.503906 11.109375 -6.078125 Z M 11.109375 -6.078125 "/></g></g></g><g fill="#fafafa" fill-opacity="1"><g transform="translate(51.520817, 16.020002)"><g><path d="M 9.453125 0 L 4.640625 -5.8125 L 3.0625 -4.609375 L 3.0625 0 L 1.4375 0 L 1.4375 -12.046875 L 3.0625 -12.046875 L 3.0625 -6 L 8.875 -12.046875 L 10.796875 -12.046875 L 5.671875 -6.8125 L 11.46875 0 Z M 9.453125 0 "/></g></g></g><g fill="#fafafa" fill-opacity="1"><g transform="translate(67.666549, 16.020002)"><g/></g></g><g fill="#fafafa" fill-opacity="1"><g transform="translate(77.006856, 16.020002)"><g><path d="M 9.953125 0 L 6.8125 -5 L 3.0625 -5 L 3.0625 0 L 1.4375 0 L 1.4375 -12.046875 L 7.09375 -12.046875 C 8.457031 -12.046875 9.503906 -11.738281 10.234375 -11.125 C 10.972656 -10.519531 11.34375 -9.675781 11.34375 -8.59375 C 11.34375 -7.695312 11.082031 -6.941406 10.5625 -6.328125 C 10.039062 -5.722656 9.320312 -5.34375 8.40625 -5.1875 L 11.828125 0 Z M 9.703125 -8.578125 C 9.703125 -9.273438 9.460938 -9.804688 8.984375 -10.171875 C 8.515625 -10.546875 7.832031 -10.734375 6.9375 -10.734375 L 3.0625 -10.734375 L 3.0625 -6.296875 L 7 -6.296875 C 7.863281 -6.296875 8.53125 -6.492188 9 -6.890625 C 9.46875 -7.296875 9.703125 -7.859375 9.703125 -8.578125 Z M 9.703125 -8.578125 "/></g></g></g><g fill="#fafafa" fill-opacity="1"><g transform="translate(94.117472, 16.020002)"><g><path d="M 1.4375 0 L 1.4375 -12.046875 L 10.5625 -12.046875 L 10.5625 -10.703125 L 3.0625 -10.703125 L 3.0625 -6.84375 L 10.0625 -6.84375 L 10.0625 -5.53125 L 3.0625 -5.53125 L 3.0625 -1.328125 L 10.921875 -1.328125 L 10.921875 0 Z M 1.4375 0 "/></g></g></g><g fill="#fafafa" fill-opacity="1"><g transform="translate(110.263203, 16.020002)"><g><path d="M 9.96875 0 L 8.59375 -3.515625 L 3.109375 -3.515625 L 1.71875 0 L 0.03125 0 L 4.953125 -12.046875 L 6.796875 -12.046875 L 11.640625 0 Z M 5.859375 -10.8125 L 5.78125 -10.5625 C 5.632812 -10.09375 5.421875 -9.488281 5.140625 -8.75 L 3.609375 -4.796875 L 8.109375 -4.796875 L 6.5625 -8.765625 C 6.40625 -9.160156 6.242188 -9.601562 6.078125 -10.09375 Z M 5.859375 -10.8125 "/></g></g></g><g fill="#fafafa" fill-opacity="1"><g transform="translate(126.408935, 16.020002)"><g><path d="M 11.796875 -6.140625 C 11.796875 -4.898438 11.550781 -3.8125 11.0625 -2.875 C 10.582031 -1.945312 9.898438 -1.234375 9.015625 -0.734375 C 8.128906 -0.242188 7.101562 0 5.9375 0 L 1.4375 0 L 1.4375 -12.046875 L 5.421875 -12.046875 C 7.460938 -12.046875 9.035156 -11.53125 10.140625 -10.5 C 11.242188 -9.476562 11.796875 -8.023438 11.796875 -6.140625 Z M 10.15625 -6.140625 C 10.15625 -7.628906 9.742188 -8.765625 8.921875 -9.546875 C 8.109375 -10.335938 6.929688 -10.734375 5.390625 -10.734375 L 3.0625 -10.734375 L 3.0625 -1.3125 L 5.75 -1.3125 C 6.632812 -1.3125 7.410156 -1.503906 8.078125 -1.890625 C 8.742188 -2.273438 9.253906 -2.832031 9.609375 -3.5625 C 9.972656 -4.289062 10.15625 -5.148438 10.15625 -6.140625 Z M 10.15625 -6.140625 "/></g></g></g><g fill="#fafafa" fill-opacity="1"><g transform="translate(143.519551, 16.020002)"><g><path d="M 6.640625 -4.984375 L 6.640625 0 L 5.015625 0 L 5.015625 -4.984375 L 0.390625 -12.046875 L 2.171875 -12.046875 L 5.84375 -6.3125 L 9.5 -12.046875 L 11.28125 -12.046875 Z M 6.640625 -4.984375 "/></g></g></g><g fill="#fafafa" fill-opacity="1"><g transform="translate(159.665282, 16.020002)"><g><path d="M 3.296875 -1.875 L 3.296875 -0.4375 C 3.296875 0.164062 3.238281 0.671875 3.125 1.078125 C 3.019531 1.484375 2.851562 1.867188 2.625 2.234375 L 1.578125 2.234375 C 2.109375 1.460938 2.375 0.71875 2.375 0 L 1.625 0 L 1.625 -1.875 Z M 3.296875 -1.875 "/></g></g></g><g fill="#fafafa" fill-opacity="1"><g transform="translate(169.005589, 16.020002)"><g/></g></g><g fill="#fafafa" fill-opacity="1"><g transform="translate(178.345896, 16.020002)"><g><path d="M 3.0625 -10.703125 L 3.0625 -6.234375 L 9.78125 -6.234375 L 9.78125 -4.875 L 3.0625 -4.875 L 3.0625 0 L 1.4375 0 L 1.4375 -12.046875 L 9.984375 -12.046875 L 9.984375 -10.703125 Z M 3.0625 -10.703125 "/></g></g></g><g fill="#fafafa" fill-opacity="1"><g transform="translate(193.509665, 16.020002)"><g><path d="M 1.4375 0 L 1.4375 -12.046875 L 10.5625 -12.046875 L 10.5625 -10.703125 L 3.0625 -10.703125 L 3.0625 -6.84375 L 10.0625 -6.84375 L 10.0625 -5.53125 L 3.0625 -5.53125 L 3.0625 -1.328125 L 10.921875 -1.328125 L 10.921875 0 Z M 1.4375 0 "/></g></g></g><g fill="#fafafa" fill-opacity="1"><g transform="translate(209.655397, 16.020002)"><g><path d="M 1.4375 0 L 1.4375 -12.046875 L 10.5625 -12.046875 L 10.5625 -10.703125 L 3.0625 -10.703125 L 3.0625 -6.84375 L 10.0625 -6.84375 L 10.0625 -5.53125 L 3.0625 -5.53125 L 3.0625 -1.328125 L 10.921875 -1.328125 L 10.921875 0 Z M 1.4375 0 "/></g></g></g><g fill="#fafafa" fill-opacity="1"><g transform="translate(225.801128, 16.020002)"><g><path d="M 1.4375 0 L 1.4375 -12.046875 L 3.0625 -12.046875 L 3.0625 -1.328125 L 9.15625 -1.328125 L 9.15625 0 Z M 1.4375 0 "/></g></g></g><g fill="#fafafa" fill-opacity="1"><g transform="translate(240.008552, 16.020002)"><g/></g></g><g fill="#fafafa" fill-opacity="1"><g transform="translate(249.348859, 16.020002)"><g><path d="M 9.953125 0 L 6.8125 -5 L 3.0625 -5 L 3.0625 0 L 1.4375 0 L 1.4375 -12.046875 L 7.09375 -12.046875 C 8.457031 -12.046875 9.503906 -11.738281 10.234375 -11.125 C 10.972656 -10.519531 11.34375 -9.675781 11.34375 -8.59375 C 11.34375 -7.695312 11.082031 -6.941406 10.5625 -6.328125 C 10.039062 -5.722656 9.320312 -5.34375 8.40625 -5.1875 L 11.828125 0 Z M 9.703125 -8.578125 C 9.703125 -9.273438 9.460938 -9.804688 8.984375 -10.171875 C 8.515625 -10.546875 7.832031 -10.734375 6.9375 -10.734375 L 3.0625 -10.734375 L 3.0625 -6.296875 L 7 -6.296875 C 7.863281 -6.296875 8.53125 -6.492188 9 -6.890625 C 9.46875 -7.296875 9.703125 -7.859375 9.703125 -8.578125 Z M 9.703125 -8.578125 "/></g></g></g><g fill="#fafafa" fill-opacity="1"><g transform="translate(266.459475, 16.020002)"><g><path d="M 1.4375 0 L 1.4375 -12.046875 L 10.5625 -12.046875 L 10.5625 -10.703125 L 3.0625 -10.703125 L 3.0625 -6.84375 L 10.0625 -6.84375 L 10.0625 -5.53125 L 3.0625 -5.53125 L 3.0625 -1.328125 L 10.921875 -1.328125 L 10.921875 0 Z M 1.4375 0 "/></g></g></g><g fill="#fafafa" fill-opacity="1"><g transform="translate(282.605206, 16.020002)"><g><path d="M 9.96875 0 L 8.59375 -3.515625 L 3.109375 -3.515625 L 1.71875 0 L 0.03125 0 L 4.953125 -12.046875 L 6.796875 -12.046875 L 11.640625 0 Z M 5.859375 -10.8125 L 5.78125 -10.5625 C 5.632812 -10.09375 5.421875 -9.488281 5.140625 -8.75 L 3.609375 -4.796875 L 8.109375 -4.796875 L 6.5625 -8.765625 C 6.40625 -9.160156 6.242188 -9.601562 6.078125 -10.09375 Z M 5.859375 -10.8125 "/></g></g></g><g fill="#fafafa" fill-opacity="1"><g transform="translate(298.750938, 16.020002)"><g><path d="M 11.796875 -6.140625 C 11.796875 -4.898438 11.550781 -3.8125 11.0625 -2.875 C 10.582031 -1.945312 9.898438 -1.234375 9.015625 -0.734375 C 8.128906 -0.242188 7.101562 0 5.9375 0 L 1.4375 0 L 1.4375 -12.046875 L 5.421875 -12.046875 C 7.460938 -12.046875 9.035156 -11.53125 10.140625 -10.5 C 11.242188 -9.476562 11.796875 -8.023438 11.796875 -6.140625 Z M 10.15625 -6.140625 C 10.15625 -7.628906 9.742188 -8.765625 8.921875 -9.546875 C 8.109375 -10.335938 6.929688 -10.734375 5.390625 -10.734375 L 3.0625 -10.734375 L 3.0625 -1.3125 L 5.75 -1.3125 C 6.632812 -1.3125 7.410156 -1.503906 8.078125 -1.890625 C 8.742188 -2.273438 9.253906 -2.832031 9.609375 -3.5625 C 9.972656 -4.289062 10.15625 -5.148438 10.15625 -6.140625 Z M 10.15625 -6.140625 "/></g></g></g><g fill="#fafafa" fill-opacity="1"><g transform="translate(315.861572, 16.020002)"><g><path d="M 6.640625 -4.984375 L 6.640625 0 L 5.015625 0 L 5.015625 -4.984375 L 0.390625 -12.046875 L 2.171875 -12.046875 L 5.84375 -6.3125 L 9.5 -12.046875 L 11.28125 -12.046875 Z M 6.640625 -4.984375 "/></g></g></g></g></g></svg>